<?xml version="1.0" encoding="UTF-8" ?>
<svg version="1.1" width="32" height="32" xmlns="http://www.w3.org/2000/svg" shape-rendering="crispEdges">
<rect x="13" y="0" width="6" height="2" fill="#696A6A" />
<rect x="10" y="1" width="3" height="1" fill="#696A6A" />
<rect x="19" y="1" width="1" height="1" fill="#FFFFFF" />
<rect x="20" y="1" width="2" height="12" fill="#696A6A" />
<rect x="8" y="2" width="3" height="3" fill="#696A6A" />
<rect x="11" y="2" width="1" height="1" fill="#000000" />
<rect x="12" y="2" width="4" height="1" fill="#696A6A" />
<rect x="16" y="2" width="2" height="4" fill="#000000" />
<rect x="18" y="2" width="2" height="1" fill="#696A6A" />
<rect x="22" y="2" width="2" height="11" fill="#696A6A" />
<rect x="7" y="3" width="1" height="13" fill="#696A6A" />
<rect x="11" y="3" width="4" height="2" fill="#696A6A" />
<rect x="15" y="3" width="1" height="2" fill="#000000" />
<rect x="18" y="3" width="1" height="2" fill="#000000" />
<rect x="19" y="3" width="1" height="10" fill="#696A6A" />
<rect x="24" y="3" width="1" height="12" fill="#696A6A" />
<rect x="5" y="4" width="2" height="12" fill="#696A6A" />
<rect x="25" y="4" width="2" height="10" fill="#696A6A" />
<rect x="4" y="5" width="1" height="13" fill="#696A6A" />
<rect x="8" y="5" width="2" height="8" fill="#696A6A" />
<rect x="10" y="5" width="1" height="1" fill="#000000" />
<rect x="11" y="5" width="1" height="4" fill="#696A6A" />
<rect x="12" y="5" width="1" height="1" fill="#FFFFFF" />
<rect x="13" y="5" width="3" height="4" fill="#696A6A" />
<rect x="18" y="5" width="1" height="6" fill="#696A6A" />
<rect x="27" y="5" width="1" height="7" fill="#696A6A" />
<rect x="10" y="6" width="1" height="7" fill="#696A6A" />
<rect x="12" y="6" width="1" height="2" fill="#696A6A" />
<rect x="16" y="6" width="2" height="2" fill="#696A6A" />
<rect x="3" y="7" width="1" height="13" fill="#696A6A" />
<rect x="28" y="7" width="1" height="3" fill="#696A6A" />
<rect x="29" y="7" width="1" height="3" fill="#FFFFFF" />
<rect x="2" y="8" width="1" height="14" fill="#696A6A" />
<rect x="12" y="8" width="1" height="3" fill="#000000" />
<rect x="16" y="8" width="1" height="1" fill="#FFFFFF" />
<rect x="17" y="8" width="1" height="5" fill="#696A6A" />
<rect x="11" y="9" width="1" height="1" fill="#000000" />
<rect x="13" y="9" width="1" height="1" fill="#000000" />
<rect x="14" y="9" width="3" height="4" fill="#696A6A" />
<rect x="1" y="10" width="1" height="12" fill="#696A6A" />
<rect x="11" y="10" width="1" height="3" fill="#696A6A" />
<rect x="13" y="10" width="1" height="3" fill="#696A6A" />
<rect x="28" y="10" width="1" height="2" fill="#FFFFFF" />
<rect x="29" y="10" width="2" height="12" fill="#EEEEEE" />
<rect x="12" y="11" width="1" height="2" fill="#696A6A" />
<rect x="18" y="11" width="1" height="1" fill="#000000" />
<rect x="18" y="12" width="1" height="1" fill="#696A6A" />
<rect x="27" y="12" width="1" height="2" fill="#FFFFFF" />
<rect x="28" y="12" width="1" height="13" fill="#EEEEEE" />
<rect x="0" y="13" width="1" height="6" fill="#696A6A" />
<rect x="8" y="13" width="15" height="2" fill="#000000" />
<rect x="23" y="13" width="1" height="3" fill="#696A6A" />
<rect x="31" y="13" width="1" height="6" fill="#EEEEEE" />
<rect x="25" y="14" width="1" height="1" fill="#696A6A" />
<rect x="26" y="14" width="1" height="1" fill="#FFFFFF" />
<rect x="27" y="14" width="1" height="13" fill="#EEEEEE" />
<rect x="8" y="15" width="1" height="1" fill="#FFFFFF" />
<rect x="9" y="15" width="2" height="3" fill="#000000" />
<rect x="11" y="15" width="1" height="3" fill="#222034" />
<rect x="12" y="15" width="10" height="3" fill="#000000" />
<rect x="22" y="15" width="1" height="1" fill="#696A6A" />
<rect x="24" y="15" width="2" height="1" fill="#FFFFFF" />
<rect x="26" y="15" width="1" height="13" fill="#EEEEEE" />
<rect x="5" y="16" width="1" height="1" fill="#696A6A" />
<rect x="6" y="16" width="2" height="1" fill="#FFFFFF" />
<rect x="8" y="16" width="1" height="13" fill="#000000" />
<rect x="22" y="16" width="1" height="9" fill="#000000" />
<rect x="23" y="16" width="1" height="1" fill="#FFFFFF" />
<rect x="24" y="16" width="2" height="2" fill="#EEEEEE" />
<rect x="5" y="17" width="1" height="1" fill="#FFFFFF" />
<rect x="6" y="17" width="2" height="1" fill="#EEEEEE" />
<rect x="23" y="17" width="1" height="1" fill="#EEEEEE" />
<rect x="4" y="18" width="1" height="2" fill="#FFFFFF" />
<rect x="5" y="18" width="1" height="1" fill="#EEEEEE" />
<rect x="6" y="18" width="2" height="10" fill="#000000" />
<rect x="9" y="18" width="2" height="1" fill="#222034" />
<rect x="11" y="18" width="2" height="1" fill="#000000" />
<rect x="13" y="18" width="5" height="2" fill="#FFFFFF" />
<rect x="18" y="18" width="4" height="1" fill="#000000" />
<rect x="23" y="18" width="2" height="2" fill="#000000" />
<rect x="25" y="18" width="1" height="1" fill="#EEEEEE" />
<rect x="5" y="19" width="1" height="7" fill="#000000" />
<rect x="9" y="19" width="3" height="9" fill="#000000" />
<rect x="12" y="19" width="1" height="7" fill="#FFFFFF" />
<rect x="18" y="19" width="1" height="7" fill="#FFFFFF" />
<rect x="19" y="19" width="3" height="7" fill="#000000" />
<rect x="25" y="19" width="1" height="7" fill="#000000" />
<rect x="3" y="20" width="1" height="2" fill="#FFFFFF" />
<rect x="4" y="20" width="1" height="7" fill="#EEEEEE" />
<rect x="13" y="20" width="2" height="2" fill="#000000" />
<rect x="15" y="20" width="1" height="6" fill="#FFFFFF" />
<rect x="16" y="20" width="2" height="2" fill="#000000" />
<rect x="23" y="20" width="2" height="5" fill="#222034" />
<rect x="2" y="22" width="1" height="3" fill="#FFFFFF" />
<rect x="3" y="22" width="1" height="3" fill="#EEEEEE" />
<rect x="13" y="22" width="2" height="3" fill="#FFFFFF" />
<rect x="16" y="22" width="2" height="3" fill="#FFFFFF" />
<rect x="29" y="22" width="1" height="2" fill="#EEEEEE" />
<rect x="13" y="25" width="2" height="3" fill="#000000" />
<rect x="16" y="25" width="2" height="3" fill="#000000" />
<rect x="22" y="25" width="1" height="1" fill="#222034" />
<rect x="23" y="25" width="2" height="3" fill="#000000" />
<rect x="5" y="26" width="1" height="2" fill="#EEEEEE" />
<rect x="12" y="26" width="1" height="2" fill="#000000" />
<rect x="15" y="26" width="1" height="2" fill="#000000" />
<rect x="18" y="26" width="3" height="2" fill="#000000" />
<rect x="21" y="26" width="1" height="2" fill="#222034" />
<rect x="22" y="26" width="1" height="3" fill="#000000" />
<rect x="25" y="26" width="1" height="2" fill="#EEEEEE" />
<rect x="7" y="28" width="1" height="1" fill="#EEEEEE" />
<rect x="9" y="28" width="2" height="3" fill="#000000" />
<rect x="11" y="28" width="10" height="1" fill="#222034" />
<rect x="21" y="28" width="1" height="3" fill="#000000" />
<rect x="23" y="28" width="2" height="1" fill="#EEEEEE" />
<rect x="8" y="29" width="1" height="1" fill="#EEEEEE" />
<rect x="11" y="29" width="10" height="2" fill="#000000" />
<rect x="22" y="29" width="2" height="1" fill="#EEEEEE" />
<rect x="13" y="31" width="6" height="1" fill="#EEEEEE" />
</svg>