<?xml version="1.0" encoding="UTF-8" ?>
<svg version="1.1" width="32" height="32" xmlns="http://www.w3.org/2000/svg" shape-rendering="crispEdges">
<rect x="17" y="6" width="4" height="15" fill="#FFFFFF" />
<rect x="15" y="7" width="2" height="10" fill="#FFFFFF" />
<rect x="21" y="7" width="2" height="20" fill="#FFFFFF" />
<rect x="13" y="8" width="2" height="9" fill="#FFFFFF" />
<rect x="23" y="8" width="2" height="19" fill="#FFFFFF" />
<rect x="7" y="9" width="1" height="1" fill="#000000" />
<rect x="11" y="9" width="1" height="3" fill="#000000" />
<rect x="12" y="9" width="1" height="1" fill="#FFFFFF" />
<rect x="25" y="9" width="1" height="19" fill="#FFFFFF" />
<rect x="10" y="10" width="1" height="1" fill="#000000" />
<rect x="12" y="10" width="1" height="1" fill="#000000" />
<rect x="26" y="10" width="1" height="18" fill="#FFFFFF" />
<rect x="6" y="11" width="1" height="1" fill="#000000" />
<rect x="12" y="11" width="1" height="4" fill="#FFFFFF" />
<rect x="11" y="12" width="1" height="5" fill="#FFFFFF" />
<rect x="8" y="13" width="1" height="3" fill="#000000" />
<rect x="7" y="14" width="1" height="1" fill="#000000" />
<rect x="9" y="14" width="1" height="1" fill="#000000" />
<rect x="12" y="15" width="1" height="1" fill="#000000" />
<rect x="12" y="16" width="1" height="1" fill="#FFFFFF" />
<rect x="5" y="17" width="11" height="1" fill="#000000" />
<rect x="16" y="17" width="1" height="3" fill="#FFFFFF" />
<rect x="6" y="18" width="1" height="2" fill="#000000" />
<rect x="7" y="18" width="1" height="2" fill="#222034" />
<rect x="8" y="18" width="7" height="2" fill="#000000" />
<rect x="15" y="18" width="1" height="1" fill="#FFFFFF" />
<rect x="5" y="19" width="1" height="9" fill="#000000" />
<rect x="15" y="19" width="1" height="6" fill="#000000" />
<rect x="4" y="20" width="1" height="7" fill="#000000" />
<rect x="6" y="20" width="1" height="1" fill="#222034" />
<rect x="7" y="20" width="2" height="1" fill="#000000" />
<rect x="9" y="20" width="3" height="2" fill="#FFFFFF" />
<rect x="12" y="20" width="3" height="1" fill="#000000" />
<rect x="16" y="20" width="1" height="2" fill="#000000" />
<rect x="3" y="21" width="1" height="5" fill="#000000" />
<rect x="6" y="21" width="2" height="6" fill="#000000" />
<rect x="8" y="21" width="1" height="5" fill="#FFFFFF" />
<rect x="12" y="21" width="1" height="5" fill="#FFFFFF" />
<rect x="13" y="21" width="2" height="5" fill="#000000" />
<rect x="17" y="21" width="1" height="5" fill="#000000" />
<rect x="18" y="21" width="3" height="6" fill="#FFFFFF" />
<rect x="9" y="22" width="1" height="1" fill="#000000" />
<rect x="10" y="22" width="1" height="4" fill="#FFFFFF" />
<rect x="11" y="22" width="1" height="1" fill="#000000" />
<rect x="16" y="22" width="1" height="3" fill="#222034" />
<rect x="9" y="23" width="1" height="2" fill="#FFFFFF" />
<rect x="11" y="23" width="1" height="2" fill="#FFFFFF" />
<rect x="9" y="25" width="1" height="2" fill="#000000" />
<rect x="11" y="25" width="1" height="2" fill="#000000" />
<rect x="15" y="25" width="1" height="1" fill="#222034" />
<rect x="16" y="25" width="1" height="2" fill="#000000" />
<rect x="8" y="26" width="1" height="1" fill="#000000" />
<rect x="10" y="26" width="1" height="1" fill="#000000" />
<rect x="12" y="26" width="2" height="1" fill="#000000" />
<rect x="14" y="26" width="1" height="1" fill="#222034" />
<rect x="15" y="26" width="1" height="2" fill="#000000" />
<rect x="17" y="26" width="1" height="2" fill="#FFFFFF" />
<rect x="6" y="27" width="1" height="2" fill="#000000" />
<rect x="7" y="27" width="7" height="1" fill="#222034" />
<rect x="14" y="27" width="1" height="2" fill="#000000" />
<rect x="16" y="27" width="1" height="1" fill="#FFFFFF" />
<rect x="20" y="27" width="2" height="1" fill="#FFFFFF" />
<rect x="24" y="27" width="1" height="1" fill="#FFFFFF" />
<rect x="7" y="28" width="7" height="1" fill="#000000" />
</svg>

